<svg width="247" height="247" viewBox="0 0 247 247" fill="none" xmlns="http://www.w3.org/2000/svg">
<path d="M142.678 14.4616L103.761 14.564C92.2331 14.5941 82.9753 23.898 83.0051 35.4261L83.1251 81.9101L32.7639 81.7795C20.8876 81.7487 11.304 91.2878 11.2734 103.164L11.1674 143.257C11.1366 155.133 20.6758 164.72 32.5521 164.751L83.3405 164.881L83.3648 175.051C86.5433 171.455 90.0445 168.375 95.1129 164.913C98.6468 162.5 102.923 159.896 108.429 156.767C109.795 155.99 113.07 153.925 115.71 152.176C121.753 148.174 123.037 147.503 124.909 147.374C126.628 147.256 127.166 147.575 127.66 149.002C128.131 150.367 127.649 152.098 126.293 153.893C125.08 155.499 117.719 161.61 113.062 164.959C112.639 165.263 112.114 165.676 111.745 165.927C107.7 168.673 106.441 172.178 108.916 173.798C110.279 174.689 114.076 174.485 117.486 173.335C122.444 171.664 127.805 168.72 132.932 165.009C138.291 161.129 143.395 156.408 147.501 151.354C151.709 146.174 155.848 138.58 157.522 132.967C158.026 131.279 158.754 128.85 159.14 127.564C160.184 124.082 160.581 122.338 161.905 115.435C162.521 112.22 163.282 108.682 163.723 106.872C163.756 106.736 163.832 106.341 163.861 106.229C165.38 100.306 167.865 96.4664 170.842 95.4521C171.752 95.1418 172.63 94.9888 173.31 94.986C173.991 94.9832 174.475 95.1317 174.592 95.438C175.4 97.5432 173.599 125.748 172.155 133.603C170.612 142.002 167.455 151.347 163.857 158.469C163.201 159.769 162.534 161.021 161.855 162.152C161.242 163.173 160.743 164.049 160.743 164.101C160.743 164.143 160.278 164.813 160.114 165.079C159.315 166.384 157.202 169.487 155.662 171.534C151.102 177.594 143.214 184.395 135.753 188.706C128.996 192.61 125.161 194.336 113.796 198.593C105.149 201.833 102.31 203.063 95.5685 206.493C90.288 209.179 87.1381 211.364 85.826 213.241C85.3585 213.909 84.6305 215.475 84.2088 216.719C84.1817 216.8 84.1584 216.84 84.1311 216.917C86.4331 225.934 94.5712 232.563 104.322 232.538L143.239 232.436C154.767 232.406 164.025 223.102 163.995 211.574L163.875 165.09L214.236 165.221C226.112 165.251 235.696 155.712 235.727 143.836L235.833 103.743C235.863 91.867 226.324 82.2798 214.448 82.2492L163.66 82.1186L163.639 73.2448C160.861 76.3876 157.816 79.146 153.72 82.0939C149.858 84.8728 145.076 87.8321 138.571 91.5291C137.205 92.3056 133.929 94.3746 131.29 96.1231C125.247 100.126 123.963 100.797 122.091 100.925C120.371 101.044 119.834 100.725 119.34 99.2976C118.868 97.9328 119.351 96.202 120.707 94.407C122.03 92.655 130.817 85.3858 135.255 82.3728C135.411 82.2667 135.534 82.1527 135.682 82.0445C139.362 79.3519 140.463 76.0588 138.084 74.502C136.721 73.6102 132.924 73.8148 129.514 74.9645C125.158 76.4329 120.496 78.9086 115.95 81.995C109.911 86.0951 104.082 91.3003 99.4988 96.9424C95.2909 102.122 91.1516 109.716 89.4774 115.329C88.9739 117.017 88.2457 119.449 87.8601 120.735C86.8159 124.217 86.4193 125.962 85.0952 132.865C84.4797 136.074 83.7219 139.6 83.2802 141.414C83.2461 141.553 83.1684 141.956 83.139 142.07C81.6198 147.993 79.1349 151.83 76.1579 152.844C75.2475 153.154 74.37 153.311 73.6896 153.314C73.0091 153.316 72.5253 153.164 72.4078 152.858C71.6 150.753 73.401 122.548 74.8443 114.693C76.3882 106.292 79.5472 96.9426 83.146 89.8201C83.8016 88.5226 84.4666 87.2762 85.1447 86.1477C85.7582 85.1267 86.257 84.2471 86.257 84.195C86.257 84.0974 86.9915 82.9957 87.7118 81.9209C88.8195 80.2683 90.214 78.2561 91.3383 76.7619C95.8982 70.7021 103.786 63.9007 111.247 59.59C118.004 55.686 121.839 53.9606 133.204 49.7027C141.851 46.463 144.69 45.2333 151.431 41.8036C156.712 39.1171 159.862 36.9353 161.174 35.0591C161.641 34.3904 162.369 32.8248 162.791 31.5809C162.891 31.2862 162.978 31.1014 163.07 30.8641C161.053 21.4473 152.71 14.4357 142.678 14.4616ZM112.875 101.54C113.654 101.55 114.266 101.622 115.022 101.79C117.503 102.345 120.039 103.831 122.201 105.996C122.445 106.241 122.553 106.355 122.9 106.734C123.002 106.846 123.03 106.871 123.087 106.889C123.177 106.919 123.29 106.908 123.394 106.861C123.465 106.83 123.502 106.801 123.677 106.611C123.967 106.297 124.573 105.704 124.888 105.424C127.35 103.239 130.026 101.929 132.688 101.611C133.228 101.546 134.06 101.52 134.57 101.55C136.409 101.662 138.119 102.201 139.931 103.238C141.935 104.386 143.749 106.015 145.114 107.896C147.3 110.907 148.309 114.398 148.021 117.949C147.711 121.765 145.911 125.572 142.734 129.143C142.327 129.601 142.051 129.889 141.484 130.456C140.64 131.302 139.962 131.922 139.051 132.681C138.353 133.263 123.607 145.332 123.55 145.368C123.406 145.459 123.186 145.491 123.041 145.439C123.005 145.426 122.958 145.408 122.939 145.397C122.913 145.383 108.984 133.725 107.886 132.798C105.043 130.397 102.839 127.849 101.335 125.227C100.888 124.447 100.458 123.571 100.138 122.776C99.0874 120.163 98.7234 117.514 99.0507 114.898C99.5794 110.672 101.996 106.686 105.626 104.061C107.308 102.844 109.099 102.032 110.799 101.713C111.529 101.576 112.093 101.529 112.875 101.54Z" fill="url(#paint0_linear_26_248)"/>
<defs>
<linearGradient id="paint0_linear_26_248" x1="123.5" y1="11.1671" x2="123.5" y2="235.833" gradientUnits="userSpaceOnUse">
<stop offset="1" stop-color="#22577A"/>
</linearGradient>
</defs>
</svg>
