<?xml version="1.0" encoding="UTF-8" standalone="no"?>
<!-- Created with Inkscape (http://www.inkscape.org/) -->

<svg
   width="200"
   height="200"
   viewBox="0 0 52.916665 52.916666"
   version="1.1"
   id="svg1"
   xml:space="preserve"
   xmlns:xlink="http://www.w3.org/1999/xlink"
   xmlns="http://www.w3.org/2000/svg"
   xmlns:svg="http://www.w3.org/2000/svg"><defs
     id="defs1"><linearGradient
       id="linearGradient16"><stop
         style="stop-color:#80ed99;stop-opacity:1;"
         offset="0"
         id="stop17" /><stop
         style="stop-color:#22577a;stop-opacity:1;"
         offset="1"
         id="stop16" /></linearGradient><linearGradient
       xlink:href="#linearGradient16"
       id="linearGradient17"
       x1="26.458326"
       y1="10.019037"
       x2="26.458326"
       y2="42.897652"
       gradientUnits="userSpaceOnUse"
       gradientTransform="matrix(1.4639248,0,0,1.4639248,-12.274628,-12.274702)" /></defs><g
     id="layer1"><path
       d="m 30.566956,3.0982189 -8.337431,0.021944 c -2.469733,0.00644 -4.453099,1.9996935 -4.446731,4.469427 l 0.02572,9.9586191 -10.7892617,-0.02798 c -2.5443467,-0.0066 -4.5975229,2.037041 -4.6040826,4.581389 l -0.022693,8.589347 c -0.00661,2.544347 2.0370413,4.598281 4.581388,4.604841 l 10.8808003,0.02799 0.0052,2.178733 c 0.680953,-0.770468 1.431039,-1.430389 2.516889,-2.171925 0.757083,-0.517018 1.673174,-1.07483 2.852777,-1.745254 0.292707,-0.166362 0.994372,-0.608844 1.559912,-0.983456 1.294628,-0.857563 1.56966,-1.001302 1.970693,-1.028845 0.3684,-0.02532 0.48362,0.04304 0.589317,0.348748 0.1011,0.292395 -0.0022,0.663215 -0.292768,1.047759 -0.259881,0.344112 -1.836844,1.653286 -2.834621,2.370883 -0.09054,0.06513 -0.203074,0.153578 -0.282176,0.207283 -0.866502,0.588313 -1.136305,1.339297 -0.605958,1.686247 0.292023,0.191045 1.105384,0.147252 1.836036,-0.0991 1.062176,-0.3581 2.210614,-0.988821 3.308948,-1.783837 1.148267,-0.831158 2.241673,-1.842541 3.121336,-2.925402 0.901494,-1.109731 1.788283,-2.736551 2.146959,-3.939118 0.107852,-0.361578 0.263868,-0.881962 0.346479,-1.157449 0.223712,-0.746013 0.308681,-1.119707 0.592342,-2.598592 0.132091,-0.688674 0.295066,-1.446776 0.3896,-1.834523 0.0071,-0.02912 0.02333,-0.11363 0.0295,-0.137682 0.325462,-1.26889 0.857824,-2.091538 1.495607,-2.308851 0.195037,-0.06647 0.383029,-0.09924 0.528797,-0.09986 0.145778,-5.8e-4 0.249448,0.03122 0.274611,0.09684 0.173066,0.451006 -0.212772,6.493477 -0.521988,8.176297 -0.330646,1.799402 -1.007093,3.801583 -1.777785,5.327302 -0.140697,0.27852 -0.283402,0.546842 -0.428938,0.789035 -0.131446,0.218745 -0.238298,0.40642 -0.238298,0.41759 0,0.0089 -0.09967,0.152412 -0.134651,0.209551 -0.171151,0.27954 -0.623896,0.944269 -0.953952,1.382889 -0.976908,1.298249 -2.666679,2.755361 -4.265171,3.67888 -1.447646,0.836371 -2.269279,1.206023 -4.703943,2.118211 -1.852531,0.694082 -2.460777,0.957523 -3.905073,1.6923 -1.131279,0.575534 -1.806102,1.043721 -2.087196,1.44568 -0.100171,0.14326 -0.256118,0.47866 -0.346479,0.745157 -0.0058,0.01744 -0.01079,0.0259 -0.01665,0.04237 0.493189,1.931929 2.236664,3.352161 4.325689,3.346775 l 8.337433,-0.02194 c 2.469733,-0.0063 4.453099,-1.999693 4.446732,-4.469427 l -0.02572,-9.95862 10.78926,0.028 c 2.544349,0.0066 4.597526,-2.037044 4.604085,-4.581391 l 0.02269,-8.589347 c 0.0066,-2.544347 -2.037042,-4.59828 -4.581389,-4.60484 l -10.880799,-0.02798 -0.0045,-1.901095 c -0.594988,0.673292 -1.247356,1.264241 -2.12502,1.8958 -0.827344,0.595349 -1.851822,1.229341 -3.245403,2.021378 -0.292707,0.166363 -0.994372,0.609603 -1.559912,0.984213 -1.29463,0.857562 -1.569661,1.001304 -1.970693,1.028845 -0.368402,0.02532 -0.48362,-0.04304 -0.589316,-0.348748 -0.101099,-0.292395 0.0022,-0.663213 0.292768,-1.047759 0.283467,-0.375339 2.16608,-1.932682 3.116796,-2.578166 0.03348,-0.02274 0.05984,-0.04716 0.09154,-0.07035 0.788382,-0.576855 1.024275,-1.28235 0.514423,-1.615892 -0.292021,-0.191046 -1.105384,-0.147223 -1.836034,0.0991 -0.933088,0.314578 -1.931818,0.844977 -2.905733,1.506199 -1.293795,0.878399 -2.542629,1.993542 -3.524553,3.202283 -0.901495,1.109734 -1.788284,2.736554 -2.146959,3.939117 -0.107863,0.361582 -0.263868,0.882716 -0.346479,1.158207 -0.223711,0.746008 -0.308682,1.119705 -0.592342,2.598592 -0.13187,0.687529 -0.294209,1.442974 -0.388843,1.831497 -0.0073,0.02986 -0.02395,0.116133 -0.03026,0.140712 -0.325464,1.268891 -0.857825,2.090779 -1.495609,2.308095 -0.195036,0.06647 -0.383027,0.1 -0.528796,0.100612 -0.145792,5.77e-4 -0.249447,-0.03197 -0.274611,-0.09758 -0.173067,-0.451007 0.212769,-6.493476 0.521989,-8.176298 0.33075,-1.799984 1.007536,-3.802912 1.778541,-5.328814 0.140449,-0.277967 0.282902,-0.545002 0.42818,-0.786765 0.131446,-0.218746 0.238299,-0.407177 0.238299,-0.418346 0,-0.0209 0.157358,-0.256942 0.31168,-0.48719 0.237304,-0.354055 0.536053,-0.785145 0.77693,-1.105251 0.976908,-1.298246 2.666678,-2.755363 4.265169,-3.67888 1.447645,-0.83637 2.269281,-1.206025 4.703943,-2.118211 1.852532,-0.694079 2.46078,-0.9575226 3.905075,-1.6923002 1.13128,-0.5755347 1.8061,-1.0429658 2.087195,-1.444923 0.100172,-0.1432598 0.256116,-0.478661 0.346478,-0.7451568 0.02141,-0.063124 0.04007,-0.1027239 0.05976,-0.1535701 C 34.503615,4.5948068 32.716227,3.0926985 30.56693,3.0982408 Z M 24.182062,21.75361 c 0.166894,0.0023 0.297988,0.01763 0.459954,0.05372 0.531539,0.118753 1.074788,0.437075 1.537974,0.900997 0.05232,0.05241 0.07542,0.07682 0.149787,0.158108 0.02181,0.02396 0.02795,0.02926 0.0401,0.03329 0.01925,0.0063 0.04346,0.0039 0.06582,-0.006 0.01508,-0.0067 0.02303,-0.01288 0.06052,-0.05371 0.06225,-0.06728 0.191995,-0.194277 0.25948,-0.254187 0.527432,-0.46825 1.100736,-0.748738 1.671118,-0.817024 0.115718,-0.01391 0.293928,-0.01931 0.403216,-0.01288 0.393788,0.02392 0.760253,0.139292 1.148374,0.361611 0.42938,0.245944 0.817989,0.59478 1.110548,0.997828 0.468237,0.645073 0.68439,1.39302 0.622603,2.153768 -0.0664,0.817477 -0.451961,1.633029 -1.132486,2.398117 -0.08733,0.0982 -0.146349,0.159876 -0.267803,0.281419 -0.180978,0.181117 -0.326166,0.314066 -0.521232,0.476598 -0.149659,0.124668 -3.308865,2.71037 -3.321052,2.71812 -0.03071,0.01948 -0.07802,0.0263 -0.108931,0.01514 -0.0077,-0.0028 -0.01778,-0.0067 -0.02194,-0.0091 -0.0056,-0.003 -2.98963,-2.500497 -3.224978,-2.699206 -0.609021,-0.514207 -1.081213,-1.060269 -1.403314,-1.621945 -0.09583,-0.167127 -0.187987,-0.354728 -0.256455,-0.525013 -0.225125,-0.559935 -0.303108,-1.127388 -0.233004,-1.687762 0.11327,-0.905347 0.63106,-1.759295 1.40861,-2.321711 0.360519,-0.260767 0.744017,-0.434681 1.108279,-0.503076 0.156456,-0.02937 0.27725,-0.03942 0.444824,-0.03707 z"
       style="fill:url(#linearGradient17);stroke:none;stroke-width:1.47058;stroke-linecap:round;stroke-linejoin:round"
       id="path16" /></g></svg>
